<svg width="97" height="32" viewBox="0 0 97 32" fill="none" xmlns="http://www.w3.org/2000/svg"><path d="M23.146 32H0V0h23.146v32zm-4.76-20.44h-1.814L4.896 24.561c-1.061 1.206-2.02 2.111-3.56 2.212H1.3l-.137.536H7.67l.137-.536H7.19c-.924 0-1.575-.268-1.78-.67-.034-.1-.069-.168-.069-.268 0-.302.172-.637.514-1.006 0 0 3.732-4.121 3.766-4.155h6.437v4.356c0 1.307-.787 1.776-2.944 1.776h-.035l-.136.536h7.772l.137-.536h-.069c-1.986 0-2.362-.502-2.362-1.373V11.56h-.034zm-5.272 5.328s2.739-3.116 2.876-3.25v5.964H10.75c.103-.134 2.363-2.714 2.363-2.714zM47.764 32H24.618V0h23.146v32zM27.529 19.97c0 1.944.753 3.72 2.157 5.094 1.78 1.742 4.45 2.714 7.498 2.714 1.678 0 2.842-.234 3.766-.436.89-.167 1.61-.335 2.431-.234h.035v-.034c.65-.938 1.403-2.446 1.78-3.552l.034-.066h-.616v.033c-1.507 2.38-3.766 3.585-6.677 3.585-2.088 0-4.006-.804-5.478-2.211-1.438-1.407-2.226-3.317-2.226-5.395 0-4.188 2.98-6.97 7.43-6.97 2.91 0 5.308 1.441 6.232 3.72v.033h.582l-.24-3.619h-.479v.034c-.034.034-.137.134-.445.134-.274 0-.616-.1-1.096-.235-.958-.301-2.396-.737-4.725-.737-5.786 0-9.963 3.418-9.963 8.143zM72.245 32H49.099V0h23.146v32zM66.15 12.13H52.9v.536h.65c1.849 0 2.157.603 2.157 1.91v10.253c0 1.441-.377 1.944-2.534 1.944h-.821v.536H67.04l.445-3.72h-.582v.034c-.685 2.044-1.232 2.714-3.15 2.714h-4.246c-.992 0-1.438-.2-1.438-1.307v-5.126h4.623c1.095 0 1.61.167 1.814 1.876v.034h.617v-4.692h-.617v.034c-.137 1.307-.547 1.776-1.54 1.776h-4.897v-5.897h5.753c.958 0 1.643.402 1.986 2.48v.033h.582l-.24-3.452v.034zM97 8.679V32H73.854V0h14.141v8.679H97zm-14.449 3.216c-1.78 0-2.328.034-3.458.067l-1.199.067c-.924.034-1.848.1-2.294.1h-.034v.537h.65c1.576 0 2.02.436 2.02 1.91v10.22c0 1.541-.479 1.977-2.156 1.977h-.514v.536h7.875v-.536h-.685c-1.643 0-2.157-.436-2.157-1.776v-4.055h.103c.377.034.72.034 1.267.034l1.472-.034h.377c.753.436 1.746 1.207 2.808 2.145l1.814 1.608c2.431 2.145 3.732 3.083 8.526 2.882H97v-.503h-.034c-1.952-.1-3.595-.87-5.41-2.446l-2.191-1.91c-1.199-1.038-2.055-1.742-3.082-2.48 2.226-.602 3.595-2.11 3.595-3.953a3.476 3.476 0 0 0-1.061-2.547c-1.13-1.24-3.321-1.843-6.266-1.843zm-.616.637c3.595 0 5.272 1.24 5.272 3.887 0 1.173-.342 2.077-.992 2.747-.822.805-2.123 1.207-3.938 1.207H81.9c-.41 0-.753 0-1.198-.034V12.6c.41-.067.753-.067 1.233-.067z" fill="#fff"></path><path d="M89.296 0v7.54H97L89.296 0z" fill="#fff"></path></svg>